# xmcd CD database file
#
# Track frame offsets:
#	150
#	30427
#	58472
#	83470
#	121130
#	136310
#	156312
#	182037
#	199240
#	217905
#	243835
#	271077
#	327095
#
# Disc length: 4408 seconds
#
# Revision: 0
# Processed by: cddbd v1.4PL0 Copyright (c) Steve Scherf et al.
# Submitted via: CDex 1.50Beta6
#
DISCID=ac11360d
DTITLE=Count Seinow Orchestra - Introducing Count Seinow Orchestra
DYEAR=1996
DGENRE=Jazz
TTITLE0=Daahoud
TTITLE1=New York State
TTITLE2=I Can't Get Started
TTITLE3=Manteca
TTITLE4=Shiny Stokin's
TTITLE5=My Foolish Heart
TTITLE6=You Don't Know What Love Is
TTITLE7=It;s All Right With Me
TTITLE8=I Left My Heart in San Francisco
TTITLE9=Laura
TTITLE10=Navigation
TTITLE11=Furisode Is Crying
TTITLE12=CSO Theme
EXTD=YEAR: 1996
EXTT0=
EXTT1=
EXTT2=
EXTT3=
EXTT4=
EXTT5=
EXTT6=
EXTT7=
EXTT8=
EXTT9=
EXTT10=
EXTT11=
EXTT12=
PLAYORDER=
